<svg width="16" height="16" viewBox="0 0 16 16" fill="none" xmlns="http://www.w3.org/2000/svg">
<path d="M9.71397 6.69302C9.4341 6.99838 9.45477 7.4728 9.76013 7.75267C10.0655 8.03254 10.5399 8.01187 10.8198 7.7065L13.7521 4.50699C14.0149 4.22029 14.0149 3.7803 13.7522 3.49356L10.8198 0.293368C10.54 -0.0120257 10.0656 -0.0327462 9.76019 0.247088C9.4548 0.526922 9.43408 1.00134 9.71391 1.30674L11.4948 3.25028L4.5998 3.24993C2.52866 3.24983 0.849609 4.92879 0.849609 6.99993V7.06671C0.849609 7.48092 1.1854 7.81671 1.59961 7.81671C2.01382 7.81671 2.34961 7.48092 2.34961 7.06671V6.99993C2.34961 5.75725 3.35704 4.74987 4.59972 4.74993L11.4945 4.75028L9.71397 6.69302Z" fill="#474E5A"/>
<path d="M6.28539 9.3068C6.56522 9.0014 6.5445 8.52698 6.23911 8.24715C5.93371 7.96731 5.45929 7.98803 5.17946 8.29343L2.2471 11.4936C1.98437 11.7803 1.98439 12.2203 2.24713 12.507L5.17949 15.7068C5.45934 16.0122 5.93376 16.0329 6.23914 15.753C6.54452 15.4732 6.56521 14.9988 6.28536 14.6934L4.50493 12.7506H11.3995C13.4706 12.7506 15.1495 11.0716 15.1495 9.00058V8.93365C15.1495 8.51944 14.8137 8.18365 14.3995 8.18365C13.9853 8.18365 13.6495 8.51944 13.6495 8.93365V9.00058C13.6495 10.2432 12.6422 11.2506 11.3995 11.2506H4.50429L6.28539 9.3068Z" fill="#474E5A"/>
</svg>
