<svg width="12" height="12" viewBox="0 0 12 12" fill="none" xmlns="http://www.w3.org/2000/svg">
<mask id="mask0_4352_61865" style="mask-type:alpha" maskUnits="userSpaceOnUse" x="0" y="0" width="12" height="12">
<path fill-rule="evenodd" clip-rule="evenodd" d="M6.53514 0.210754C6.78295 0.284318 6.94872 0.517307 6.93698 0.775537L6.77621 4.31249H8.71941C9.44448 4.31249 9.8951 5.10036 9.52747 5.72533L6.1099 11.5352C6.00688 11.7103 5.82047 11.8125 5.62506 11.8126C5.57187 11.8126 5.51801 11.805 5.46498 11.7892C5.21718 11.7157 5.05141 11.4827 5.06314 11.2245L5.22391 7.68749H3.28072C2.55564 7.68749 2.10503 6.89963 2.47266 6.27466L5.89023 0.464796C5.99324 0.289665 6.17966 0.187443 6.37506 0.187439C6.42826 0.187438 6.48212 0.195012 6.53514 0.210754ZM3.60855 6.56249H5.81256C5.96618 6.56249 6.11311 6.62532 6.21924 6.73638C6.32537 6.84744 6.38146 6.99708 6.37448 7.15054L6.28995 9.01026L8.39158 5.43749H6.18756C6.03395 5.43749 5.88701 5.37467 5.78089 5.26361C5.67476 5.15255 5.61867 5.00291 5.62564 4.84945L5.71018 2.98973L3.60855 6.56249Z" fill="#474E5A"/>
</mask>
<g mask="url(#mask0_4352_61865)">
<rect width="12" height="12" fill="#99A5B8"/>
</g>
</svg>
