<svg width="16" height="16" viewBox="0 0 16 16" fill="none" xmlns="http://www.w3.org/2000/svg">
<path fill-rule="evenodd" clip-rule="evenodd" d="M2.40875 2.26004C3.8588 1.15744 5.83088 0.5 7.98499 0.5C10.1412 0.5 12.1206 1.16674 13.5769 2.27677C15.0335 3.38701 16 4.9737 16 6.7815C16 8.5828 15.0421 10.1618 13.5916 11.2662C12.142 12.37 10.1699 13.0306 8.01501 13.0306C7.57477 13.0306 7.09742 13.0161 6.62779 12.9485L2.74558 15.3493C2.73307 15.3571 2.72032 15.3644 2.70737 15.3714C1.91852 15.7972 0.885766 15.0884 1.19616 14.1165L1.19661 14.1151L2.16816 11.0519C0.846744 9.9531 0 8.46243 0 6.74909C0 4.94287 0.95747 3.36358 2.40875 2.26004ZM3.31667 3.45406C2.15364 4.33841 1.5 5.50867 1.5 6.74909C1.5 8.05142 2.20474 9.25896 3.47767 10.1687C3.74219 10.3577 3.85478 10.6957 3.75648 11.0056L2.98518 13.4375L6.07947 11.5239C6.24075 11.4241 6.43382 11.3892 6.61983 11.4261C7.03695 11.5088 7.50865 11.5306 8.01501 11.5306C9.87289 11.5306 11.5183 10.9596 12.6829 10.0728C13.8468 9.18659 14.5 8.01605 14.5 6.7815C14.5 5.54266 13.8404 4.3636 12.6676 3.46974C11.4947 2.57569 9.84154 2 7.98499 2C6.12633 2 4.48092 2.56878 3.31667 3.45406Z" fill="#6C7688"/>
</svg>
