<svg width="16" height="16" viewBox="0 0 16 16" fill="none" xmlns="http://www.w3.org/2000/svg">
<path fill-rule="evenodd" clip-rule="evenodd" d="M8 3.25C8 1.73784 9.22212 0.5 10.75 0.5C12.2779 0.5 13.5 1.73785 13.5 3.25C13.5 4.76215 12.2779 6 10.75 6C9.23787 6 8 4.77792 8 3.25ZM10.75 2C10.0557 2 9.5 2.5611 9.5 3.25C9.5 3.94431 10.0611 4.5 10.75 4.5C11.4443 4.5 12 3.93891 12 3.25C12 2.56109 11.4443 2 10.75 2Z" fill="#6C7688"/>
<path fill-rule="evenodd" clip-rule="evenodd" d="M5.00002 3.5C3.47211 3.5 2.25 4.73785 2.25 6.25001C2.25 7.77792 3.48787 9 5.00002 9C6.52793 9 7.75 7.76215 7.75 6.25001C7.75 4.7247 6.52535 3.5 5.00002 3.5ZM3.75 6.25001C3.75 5.56111 4.3057 5 5.00002 5C5.6969 5 6.25 5.5531 6.25 6.25001C6.25 6.93891 5.69433 7.5 5.00002 7.5C4.3111 7.5 3.75 6.94431 3.75 6.25001Z" fill="#6C7688"/>
<path fill-rule="evenodd" clip-rule="evenodd" d="M3.77637 10C1.68645 10 0 11.7033 0 13.7948C0 14.732 0.756757 15.5 1.69944 15.5H8.79066C9.72323 15.5 10.5 14.7421 10.5 13.7948C10.5 11.7033 8.81355 10 6.72363 10H3.77637ZM1.5 13.7948C1.5 12.5231 2.52344 11.5 3.77637 11.5H6.72363C7.97656 11.5 9 12.5231 9 13.7948C9 13.9021 8.90644 14 8.79066 14H1.69944C1.59377 14 1.5 13.9122 1.5 13.7948Z" fill="#6C7688"/>
<path d="M9.25 7C8.83579 7 8.5 7.33579 8.5 7.75C8.5 8.16421 8.83579 8.5 9.25 8.5H12.12C12.6034 8.5 13.2139 8.72676 13.7053 9.16191C14.1859 9.58741 14.5 10.1638 14.5 10.83C14.5 11.1328 14.5159 11.4398 14.4921 11.742C14.3774 11.7494 14.2259 11.75 14 11.75H12C11.5858 11.75 11.25 12.0858 11.25 12.5C11.25 12.9142 11.5858 13.25 12 13.25L14.0255 13.25C14.4935 13.2501 15.0094 13.2701 15.416 12.999C15.9183 12.6642 16 12.0564 16 11.5V10.83C16 9.65725 15.4391 8.69364 14.6997 8.03888C13.9711 7.39377 13.0166 7 12.12 7H9.25Z" fill="#6C7688"/>
</svg>
