<svg width="12" height="11" viewBox="0 0 12 11" fill="none" xmlns="http://www.w3.org/2000/svg">
<path d="M3.74609 10.3428C3.56152 10.3428 3.36328 10.2607 3.21973 10.1172L0.225586 7.17773C0.0820312 7.03418 0 6.8291 0 6.63086C0 6.43262 0.0820312 6.22754 0.225586 6.09082L3.21973 3.15137C3.36328 3.00781 3.56152 2.91895 3.74609 2.91895C4.17676 2.91895 4.45703 3.21973 4.45703 3.62988C4.45703 3.84863 4.375 4.00586 4.23828 4.14258L3.07617 5.26367L2.22852 5.96094L3.45215 5.89941H9.81641C10.3223 5.89941 10.5205 5.70117 10.5205 5.19531V2.17383C10.5205 1.66113 10.3223 1.46289 9.81641 1.46289H7.02734C6.59668 1.46289 6.28223 1.13477 6.28223 0.731445C6.28223 0.328125 6.59668 0 7.02734 0H9.86426C11.3408 0 11.9629 0.62207 11.9629 2.09863V5.26367C11.9629 6.71973 11.3408 7.3623 9.86426 7.3623H3.45215L2.22852 7.30762L3.07617 7.99805L4.23828 9.12598C4.375 9.25586 4.45703 9.41992 4.45703 9.63867C4.45703 10.0488 4.17676 10.3428 3.74609 10.3428Z" fill="#6C7688"/>
</svg>
