<svg width="12" height="12" viewBox="0 0 12 12" fill="none" xmlns="http://www.w3.org/2000/svg">
<mask id="mask0_4352_61878" style="mask-type:alpha" maskUnits="userSpaceOnUse" x="0" y="0" width="12" height="12">
<path fill-rule="evenodd" clip-rule="evenodd" d="M2.38307 1.4351C2.24507 1.3547 2.0625 1.4564 2.0625 1.62356V10.3774C2.0625 10.5415 2.24795 10.6432 2.38179 10.5666L9.83318 6.15636C9.9675 6.07811 9.96752 5.91581 9.83318 5.83756C7.34119 4.38588 4.86645 2.90416 2.38423 1.4358L2.38307 1.4351ZM3.04756 0.303226C2.80426 0.161496 2.54475 0.0960146 2.29098 0.0948433C1.49203 0.0911555 0.75 0.724925 0.75 1.62356V10.3774C0.75 11.2677 1.48876 11.9092 2.2881 11.9074C2.54107 11.9069 2.80011 11.8419 3.04373 11.7L10.496 7.28919C10.9987 6.99536 11.25 6.49616 11.25 5.99697C11.25 5.49704 10.9979 4.99711 10.4938 4.70345C8.00276 3.25232 5.52884 1.77107 3.04756 0.303226Z" fill="#474E5A"/>
</mask>
<g mask="url(#mask0_4352_61878)">
<rect width="12" height="12" fill="#474E5A"/>
</g>
</svg>
