<svg width="11" height="12" viewBox="0 0 11 12" fill="none" xmlns="http://www.w3.org/2000/svg">
<path d="M7.49326 1.91876C7.03965 2.40619 6.27201 2.76983 5.66138 2.76983C5.59159 2.76983 5.52181 2.76209 5.47819 2.75435C5.46947 2.7234 5.45202 2.63056 5.45202 2.53772C5.45202 1.91876 5.80967 1.29981 6.1935 0.912959C6.682 0.402321 7.50198 0.0232108 8.1824 0C8.19984 0.0696325 8.20856 0.154739 8.20856 0.239845C8.20856 0.858801 7.91197 1.47002 7.49326 1.91876ZM7.97304 2.90135C8.35686 2.90135 9.74385 2.9323 10.6511 4.09284C10.5726 4.147 9.19429 4.83559 9.19429 6.37524C9.19429 8.15474 10.9477 8.78917 11 8.80464C10.9913 8.84333 10.7209 9.66344 10.0753 10.5068C9.4996 11.2418 8.88898 11.9845 7.97304 11.9845C7.04837 11.9845 6.81285 11.5048 5.75734 11.5048C4.71927 11.5048 4.35289 12 3.51546 12C2.66931 12 2.08485 11.3114 1.41316 10.4758C0.628073 9.48549 0 7.95358 0 6.49903C0 4.17021 1.70975 2.9323 3.39334 2.9323C4.28311 2.9323 5.02458 3.45068 5.59159 3.45068C6.12371 3.45068 6.95242 2.90135 7.97304 2.90135Z" fill="#596171"/>
</svg>
